name D:\PhD\Datasets\SharingData_IBEC_VALDUCE\MO1_Comp_0001.mot
datacolumns 46
datarows 6
range 7.51000000 7.56000000
endheader
                time	         pelvis_tilt	     pelvis_rotation	           pelvis_tx	           pelvis_ty	           pelvis_tz	       hip_flexion_r	     hip_adduction_r	      hip_rotation_r	        knee_angle_r	       ankle_angle_r	    subtalar_angle_r	         mtp_angle_r	       hip_flexion_l	     hip_adduction_l	      hip_rotation_l	        knee_angle_l	       ankle_angle_l	    subtalar_angle_l	         mtp_angle_l	    lumbar_extension	      lumbar_bending	     lumbar_rotation	          arm_flex_r	           arm_add_r	           arm_rot_r	        elbow_flex_r	           pro_sup_r	        wrist_flex_r	         wrist_dev_r	          arm_flex_l	           arm_add_l	           arm_rot_l	        elbow_flex_l	           pro_sup_l	        wrist_flex_l	         wrist_dev_l	          end_eff_tx	          end_eff_ty	          end_eff_tz	             goal_tx	             goal_ty	             goal_tz	            elbow_tx	            elbow_ty	            elbow_tz	
          7.51000000	          0.00000000	          0.00000000	        360.76058159	        495.31515880	        511.63057115	          0.00000000	          0.00000000	          0.00000000	          0.00000000	          0.00000000	          0.00000000	          0.00000000	          0.00000000	          0.00000000	          0.00000000	          0.00000000	          0.00000000	          0.00000000	          0.00000000	         -6.88272619	         12.95403481	        -13.48905087	         58.47957611	        -80.54776001	         11.00755405	         87.44886017	         77.75201416	          0.00000000	          0.00000000	          0.00000000	          0.00000000	          0.00000000	          0.00000000	          0.00000000	          0.00000000	          0.00000000	        583.60474039	        744.18630475	       1055.93633694	        597.44596586	        753.24113213	       1099.25784174	        232.07383779	        526.72814571	        986.24874311	
          7.52000000	          0.00000000	          0.00000000	        360.55998837	        495.53999734	        510.95833579	          0.00000000	          0.00000000	          0.00000000	          0.00000000	          0.00000000	          0.00000000	          0.00000000	          0.00000000	          0.00000000	          0.00000000	          0.00000000	          0.00000000	          0.00000000	          0.00000000	         -6.86452055	         13.01320457	        -13.53264999	         58.65375137	        -80.53616333	         11.10289478	         87.35862732	         77.87995148	          0.00000000	          0.00000000	          0.00000000	          0.00000000	          0.00000000	          0.00000000	          0.00000000	          0.00000000	          0.00000000	        582.06467578	        744.55018598	       1055.04747698	        597.39226430	        753.25235297	       1099.36835283	        230.87443931	        526.64885450	        985.25814070	
          7.53000000	          0.00000000	          0.00000000	        360.34292606	        495.69756256	        510.28490180	          0.00000000	          0.00000000	          0.00000000	          0.00000000	          0.00000000	          0.00000000	          0.00000000	          0.00000000	          0.00000000	          0.00000000	          0.00000000	          0.00000000	          0.00000000	          0.00000000	         -6.88953304	         12.99389648	        -13.51525211	         57.81231308	        -80.53070068	         10.12857151	         87.40821838	         78.10665131	          0.00000000	          0.00000000	          0.00000000	          0.00000000	          0.00000000	          0.00000000	          0.00000000	          0.00000000	          0.00000000	        580.60269492	        744.70861977	       1054.29481232	        597.40993138	        753.30315524	       1099.40456981	        229.66320997	        526.50240970	        984.22691369	
          7.54000000	          0.00000000	          0.00000000	        360.11676654	        495.90600527	        509.54725718	          0.00000000	          0.00000000	          0.00000000	          0.00000000	          0.00000000	          0.00000000	          0.00000000	          0.00000000	          0.00000000	          0.00000000	          0.00000000	          0.00000000	          0.00000000	          0.00000000	         -6.81084204	         12.83801556	        -13.48727131	         56.61133957	        -80.57546997	          8.97756672	         87.33011627	         78.45702362	          0.00000000	          0.00000000	          0.00000000	          0.00000000	          0.00000000	          0.00000000	          0.00000000	          0.00000000	          0.00000000	        579.06240701	        745.00690486	       1053.33020255	        597.35598938	        753.28265470	       1099.48737050	        228.41305852	        526.41133733	        983.17967085	
          7.55000000	          0.00000000	          0.00000000	        359.89408399	        496.19745187	        508.71220198	          0.00000000	          0.00000000	          0.00000000	          0.00000000	          0.00000000	          0.00000000	          0.00000000	          0.00000000	          0.00000000	          0.00000000	          0.00000000	          0.00000000	          0.00000000	          0.00000000	         -6.76302814	         12.64810276	        -13.44807529	         54.87783432	        -80.56879425	          7.22092915	         87.39086151	         78.45439911	          0.00000000	          0.00000000	          0.00000000	          0.00000000	          0.00000000	          0.00000000	          0.00000000	          0.00000000	          0.00000000	        577.35806978	        745.41616727	       1052.47143101	        597.44758900	        753.29358400	       1099.50130613	        226.98009142	        526.38480073	        982.09745646	
          7.56000000	          0.00000000	          0.00000000	        359.67629143	        496.48764420	        507.98548588	          0.00000000	          0.00000000	          0.00000000	          0.00000000	          0.00000000	          0.00000000	          0.00000000	          0.00000000	          0.00000000	          0.00000000	          0.00000000	          0.00000000	          0.00000000	          0.00000000	         -6.82291508	         12.66530323	        -13.46640110	         54.65056229	        -80.62139130	          6.86154270	         87.38259888	         78.64069366	          0.00000000	          0.00000000	          0.00000000	          0.00000000	          0.00000000	          0.00000000	          0.00000000	          0.00000000	          0.00000000	        575.68769929	        745.65794505	       1051.68826181	        597.46131006	        753.30465803	       1099.54148616	        225.66659596	        526.24908412	        981.10704844	
